<svg xmlns="http://www.w3.org/2000/svg" xmlns:xlink="http://www.w3.org/1999/xlink" version="1.2" baseProfile="tiny" x="0px" y="0px" viewBox="-42.094500000000004 -59.5276 926.079 803.6225999999999" overflow="visible" xml:space="preserve"><g><path d="M250.071,241.923l-32.778-3.749c10.596-36.541,30.802-69.432,58.919-95.71c31.435-29.379,70.461-48.279,112.86-54.657   c3.277-0.493,5.534-3.549,5.041-6.826c-0.493-3.276-3.551-5.533-6.826-5.041c-44.81,6.741-86.053,26.712-119.269,57.756   c-30.207,28.231-51.768,63.695-62.805,103.096l-33.615-3.845l31.465,72.432L250.071,241.923z"/><path d="M572.836,461.896c30.678-28.364,52.545-64.114,63.694-103.923l33.616,3.844l-31.466-72.431l-47.006,63.457l32.779,3.748   c-10.705,36.925-31.202,70.086-59.763,96.493c-31.923,29.514-71.487,48.263-114.418,54.221c-3.282,0.456-5.573,3.486-5.118,6.769   c0.417,3.002,2.988,5.176,5.936,5.176c0.274,0,0.553-0.02,0.833-0.058C497.292,512.896,539.103,493.083,572.836,461.896z"/><path d="M361.663,500.963c-36.85-10.683-69.958-31.124-96.34-59.598c-29.487-31.826-48.267-71.285-54.308-114.111   c-0.463-3.281-3.498-5.566-6.779-5.104s-5.566,3.498-5.104,6.779c6.385,45.262,26.229,86.961,57.388,120.592   c28.338,30.586,64.032,52.393,103.761,63.519l-3.844,33.617l72.431-31.466l-63.457-47.006L361.663,500.963z"/><path d="M480.081,93.803c36.925,10.705,70.087,31.201,96.493,59.763c29.514,31.922,48.263,71.487,54.221,114.417   c0.417,3.003,2.988,5.176,5.936,5.176c0.274,0,0.553-0.019,0.833-0.058c3.282-0.456,5.573-3.485,5.118-6.768   c-6.297-45.371-26.11-87.182-57.297-120.914c-28.364-30.678-64.114-52.546-103.922-63.694l3.844-33.616l-72.431,31.466   l63.457,47.006L480.081,93.803z"/><path d="M506.716,263.676l-75.504,0.857l34.431-117.781L335.029,331.078l85.843-1.09l-41.749,118.027L506.716,263.676z    M420.809,328.026c0,0-0.047-0.822,0.132-1.361C420.812,327.994,420.808,328.022,420.809,328.026z"/></g><text x="0.0" y="699.4493" font-size="29.7638" font-weight="bold" font-family="Arbeit Regular, Helvetica, Arial-Unicode, Arial, Sans-serif" fill="#000000">Created by Rina Wilkin</text><text x="0.0" y="729.2130999999999" font-size="29.7638" font-weight="bold" font-family="Arbeit Regular, Helvetica, Arial-Unicode, Arial, Sans-serif" fill="#000000">from Noun Project</text></svg>